<svg xmlns="http://www.w3.org/2000/svg" viewBox="0 0 242.87 70.32"><defs><style>.a{fill:#fff;}.b{fill:#be1622;}.c{fill:#009640;}.d{fill:#1d71b8;}</style></defs><title>MultiQC_logo_expanded</title><path class="a" d="M241.48,66.27l-1.65-2a4,4,0,0,0-1-.83,4,4,0,0,0-.66-1.17l-1.65-2a4,4,0,0,0-1-.83,4,4,0,0,0-.66-1.17l-1.65-2a4,4,0,0,0-3.08-1.45H217.69A25.65,25.65,0,0,0,226.17,49a4,4,0,0,0-.78-6.18c-1.49-.92-3.09-2-5.1-3.47V22.12c1.64-1.43,3.13-2.71,4.52-3.87a4,4,0,0,0,.12-6,25.54,25.54,0,0,0-37.09,2.85,25.61,25.61,0,0,0-43.86,7V20.51a4,4,0,0,0-2.79-3.79A4,4,0,0,0,144,12.92V6.5a4,4,0,0,0-4-4h-8.55a4,4,0,0,0-4,4v6.42a4,4,0,0,0,2.79,3.79,4,4,0,0,0-1.74,1.11,4,4,0,0,0-2.94-1.31h-1.33V12.74a4,4,0,0,0-4-4h-8.55a4,4,0,0,0-4,4v3.76H107V6.5a4,4,0,0,0-4-4H94.46a4,4,0,0,0-4,4V17.75a4,4,0,0,0-2.88-1.24H77.8a4,4,0,0,0-4,4,4,4,0,0,0-4-4H59.94A4,4,0,0,0,56.86,18V9.55a4,4,0,0,0-4-4H41.66a4,4,0,0,0-3.78,2.68L30.63,29,23.44,8.24a4,4,0,0,0-3.78-2.69H8.5a4,4,0,0,0-4,4V52.21a4,4,0,0,0,1,2.61h-2A4,4,0,0,0,.44,61.37l1.65,2a4,4,0,0,0,1,.83,4,4,0,0,0,.66,1.17l1.65,2a4,4,0,0,0,1,.83,4,4,0,0,0,.66,1.17l1.65,2a4,4,0,0,0,3.08,1.45H238.4A4,4,0,0,0,241.48,66.27Z" transform="translate(0.47 -2.5)"/><path d="M19.66,9.55L30.53,41h0.18l11-31.44H52.86V52.21H44.3V39.49l0.82-18.84-0.18,0L33.52,52.21H27.78L16.41,20.74l-0.18,0,0.82,18.72V52.21H8.5V9.55H19.66Z" transform="translate(0.47 -2.5)"/><path d="M79.52,47.64a10.64,10.64,0,0,1-3.72,3.84,9.92,9.92,0,0,1-5.19,1.35,9.9,9.9,0,0,1-7.84-3.21q-2.83-3.21-2.83-10V20.51h8.53V39.74q0,3.47,1.17,5a4.1,4.1,0,0,0,3.46,1.51,8.51,8.51,0,0,0,3.52-.66,5.93,5.93,0,0,0,2.4-2V20.51h8.55v31.7H80.28Z" transform="translate(0.47 -2.5)"/><path d="M103,52.21H94.46V6.5H103v45.7Z" transform="translate(0.47 -2.5)"/><path d="M120.21,12.74v7.76h5.33v6h-5.33V42.66a3.73,3.73,0,0,0,.76,2.64,2.71,2.71,0,0,0,2.05.79,7.86,7.86,0,0,0,1.16-.07,10.05,10.05,0,0,0,1.13-.25L126,51.94a17.18,17.18,0,0,1-2.52.66,15.19,15.19,0,0,1-2.67.22q-4.42,0-6.81-2.43t-2.39-7.7V26.51H107v-6h4.63V12.74h8.55Z" transform="translate(0.47 -2.5)"/><path d="M140,12.92h-8.55V6.5H140v6.42Zm0,39.29h-8.55V20.51H140v31.7Z" transform="translate(0.47 -2.5)"/><path d="M167.93,9.55a21.64,21.64,0,1,0,21.64,21.64A21.64,21.64,0,0,0,167.93,9.55Zm0,36.28a14.65,14.65,0,1,1,14.65-14.65A14.65,14.65,0,0,1,167.93,45.84Z" transform="translate(0.47 -2.5)"/><polygon points="200.89 62.32 190.14 62.32 180.44 50.58 186.78 45.33 200.89 62.32"/><rect x="184.35" y="44.73" width="3.48" height="18.63" transform="translate(8.73 128.51) rotate(-39.6)"/><path d="M217.41,42.17a14.64,14.64,0,1,1-.5-22.39q2.63-2.31,5.35-4.59a21.57,21.57,0,0,0-33.14,5,23.83,23.83,0,0,1,0,22,21.59,21.59,0,0,0,34.18,4C221.33,45,219.37,43.61,217.41,42.17Z" transform="translate(0.47 -2.5)"/><rect x="167.27" y="21.6" width="2.27" height="14.17"/><rect x="161.33" y="27.55" width="14.17" height="2.27"/><polygon class="b" points="230.6 56.32 198.14 56.32 199.97 58.32 232.26 58.32 230.6 56.32"/><polygon class="c" points="233.91 60.32 201.81 60.32 203.64 62.32 235.57 62.32 233.91 60.32"/><polygon class="b" points="5.65 58.32 183.83 58.32 182.02 56.32 4 56.32 5.65 58.32"/><path class="c" d="M8.49,64.82H187c-0.16-.15-0.31-0.29-0.46-0.45l-1.4-1.55H6.83Z" transform="translate(0.47 -2.5)"/><polygon class="d" points="12.27 66.32 238.88 66.32 237.22 64.32 10.62 64.32 12.27 66.32"/></svg>