<svg xmlns="http://www.w3.org/2000/svg" viewBox="0 0 234.87 62.32"><defs><style>.a{fill:#be1622;}.b{fill:#009640;}.c{fill:#1d71b8;}</style></defs><title>MultiQC_logo</title><path d="M19.66,9.55L30.53,41h0.18l11-31.44H52.86V52.21H44.3V39.49l0.82-18.84-0.18,0L33.52,52.21H27.78L16.41,20.74l-0.18,0,0.82,18.72V52.21H8.5V9.55H19.66Z" transform="translate(-3.53 -6.5)"/><path d="M79.52,47.64a10.64,10.64,0,0,1-3.72,3.84,9.92,9.92,0,0,1-5.19,1.35,9.9,9.9,0,0,1-7.84-3.21q-2.83-3.21-2.83-10V20.51h8.53V39.74q0,3.47,1.17,5a4.1,4.1,0,0,0,3.46,1.51,8.51,8.51,0,0,0,3.52-.66,5.93,5.93,0,0,0,2.4-2V20.51h8.55v31.7H80.28Z" transform="translate(-3.53 -6.5)"/><path d="M103,52.21H94.46V6.5H103v45.7Z" transform="translate(-3.53 -6.5)"/><path d="M120.21,12.74v7.76h5.33v6h-5.33V42.66a3.73,3.73,0,0,0,.76,2.64,2.71,2.71,0,0,0,2.05.79,7.86,7.86,0,0,0,1.16-.07,10.05,10.05,0,0,0,1.13-.25L126,51.94a17.18,17.18,0,0,1-2.52.66,15.19,15.19,0,0,1-2.67.22q-4.42,0-6.81-2.43t-2.39-7.7V26.51H107v-6h4.63V12.74h8.55Z" transform="translate(-3.53 -6.5)"/><path d="M140,12.92h-8.55V6.5H140v6.42Zm0,39.29h-8.55V20.51H140v31.7Z" transform="translate(-3.53 -6.5)"/><path d="M167.93,9.55a21.64,21.64,0,1,0,21.64,21.64A21.64,21.64,0,0,0,167.93,9.55Zm0,36.28a14.65,14.65,0,1,1,14.65-14.65A14.65,14.65,0,0,1,167.93,45.84Z" transform="translate(-3.53 -6.5)"/><polygon points="196.89 58.32 186.14 58.32 176.44 46.58 182.78 41.33 196.89 58.32"/><rect x="184.35" y="44.73" width="3.48" height="18.63" transform="translate(4.73 124.51) rotate(-39.6)"/><path d="M217.41,42.17a14.64,14.64,0,1,1-.5-22.39q2.63-2.31,5.35-4.59a21.57,21.57,0,0,0-33.14,5,23.83,23.83,0,0,1,0,22,21.59,21.59,0,0,0,34.18,4C221.33,45,219.37,43.61,217.41,42.17Z" transform="translate(-3.53 -6.5)"/><rect x="163.27" y="17.6" width="2.27" height="14.17"/><rect x="157.33" y="23.55" width="14.17" height="2.27"/><polygon class="a" points="226.6 52.32 194.14 52.32 195.97 54.32 228.26 54.32 226.6 52.32"/><polygon class="b" points="229.91 56.32 197.81 56.32 199.64 58.32 231.57 58.32 229.91 56.32"/><polygon class="a" points="1.65 54.32 179.83 54.32 178.02 52.32 0 52.32 1.65 54.32"/><path class="b" d="M8.49,64.82H187c-0.16-.15-0.31-0.29-0.46-0.45l-1.4-1.55H6.83Z" transform="translate(-3.53 -6.5)"/><polygon class="c" points="8.27 62.32 234.87 62.32 233.22 60.32 6.62 60.32 8.27 62.32"/></svg>