<svg xmlns="http://www.w3.org/2000/svg" viewBox="0 0 95.8 93.27"><defs><style>.a{fill:#1d1d1b;}.b{fill:#be1622;}.c{fill:#009640;}.d{fill:#1d71b8;}</style></defs><title>MultiQC_logo_square</title><path class="a" d="M27.5,3.37L44.6,52.83h0.28L62.12,3.37H79.73V70.49H66.27v-20l1.29-29.64-0.28,0-18,49.7h-9L22.38,21,22.1,21l1.29,29.46v20H9.93V3.37H27.5Z" transform="translate(-2.1 -3.37)"/><polygon class="b" points="85.38 80.68 82.78 77.53 0 77.53 2.6 80.68 85.38 80.68"/><polygon class="c" points="90.59 86.97 87.99 83.83 5.21 83.83 7.81 86.97 90.59 86.97"/><polygon class="d" points="13.02 93.27 95.8 93.27 93.19 90.12 10.41 90.12 13.02 93.27"/></svg>