<?xml version="1.0" encoding="UTF-8"?>
<svg id="Layer_1" data-name="Layer 1" xmlns="http://www.w3.org/2000/svg" viewBox="0 0 289.31 88.53">
  <defs>
    <style>
      .cls-1 {
        fill: #d4e9f8;
      }

      .cls-2 {
        fill: #4dbeed;
      }

      .cls-3 {
        fill: #81cbf1;
      }
    </style>
  </defs>
  <g>
    <rect class="cls-2" x="95" y="71.46" width=".97" height="12.82"/>
    <path class="cls-2" d="M104.55,84.28v-5.38c0-.84-.2-1.48-.6-1.93-.4-.44-1-.67-1.79-.67s-1.4,.22-1.82,.68c-.42,.45-.63,1.09-.63,1.92v5.38h-.92v-8.68h.92v1.03c.65-.76,1.5-1.13,2.56-1.13,.97,0,1.74,.28,2.3,.83,.6,.58,.9,1.38,.9,2.41v5.54h-.92Z"/>
    <path class="cls-2" d="M110.18,84.28c-.68,0-1.2-.21-1.56-.64-.35-.43-.53-.97-.53-1.63v-5.72h-1.19v-.68h1.19v-2.77h.92v2.77h1.96v.68h-1.96v5.74c0,.46,.11,.81,.32,1.06,.22,.25,.55,.38,1.01,.38h.63v.81h-.79Z"/>
    <path class="cls-2" d="M118.64,84.28v-1.03c-.65,.76-1.5,1.14-2.56,1.14-.97,0-1.74-.28-2.31-.83-.6-.58-.9-1.38-.9-2.41v-5.54h.92v5.38c0,.84,.2,1.48,.6,1.93,.4,.44,1,.67,1.79,.67s1.4-.22,1.82-.67c.42-.45,.63-1.09,.63-1.92v-5.38h.92v8.68h-.92Z"/>
    <path class="cls-2" d="M122.09,71.46h1.13v1.13h-1.13v-1.13Zm.11,4.14h.92v8.68h-.92v-8.68Z"/>
    <path class="cls-2" d="M128.22,84.28c-.68,0-1.2-.21-1.56-.64-.35-.43-.53-.97-.53-1.63v-5.72h-1.19v-.68h1.19v-2.77h.92v2.77h1.96v.68h-1.96v5.74c0,.46,.11,.81,.32,1.06,.21,.25,.55,.38,1.01,.38h.63v.81h-.79Z"/>
    <path class="cls-2" d="M130.85,71.46h1.13v1.13h-1.13v-1.13Zm.11,4.14h.92v8.68h-.92v-8.68Z"/>
    <polygon class="cls-2" points="137.53 84.28 136.63 84.28 133.46 75.6 134.47 75.6 137.08 83.2 139.69 75.6 140.7 75.6 137.53 84.28"/>
    <path class="cls-2" d="M142.46,80.14c0,1.12,.24,1.97,.71,2.55,.47,.58,1.18,.87,2.12,.87,.52,0,.95-.08,1.3-.24,.35-.16,.72-.43,1.09-.8l.68,.54c-.22,.22-.43,.41-.66,.58-.22,.17-.46,.31-.7,.42-.25,.11-.51,.2-.8,.25-.29,.05-.61,.08-.97,.08-1.2,0-2.12-.38-2.75-1.14-.63-.76-.95-1.86-.95-3.31s.31-2.51,.92-3.29c.61-.77,1.46-1.16,2.56-1.16s1.94,.37,2.56,1.11c.61,.74,.92,1.78,.92,3.12v.41h-6.03Zm5.11-.74c-.01-.2-.03-.38-.04-.53-.01-.15-.03-.29-.04-.41-.02-.12-.04-.23-.08-.34-.04-.11-.08-.23-.14-.36-.19-.46-.49-.81-.89-1.07-.4-.26-.85-.39-1.36-.39s-.95,.13-1.35,.39c-.4,.26-.7,.62-.9,1.07-.06,.13-.11,.25-.14,.36-.04,.11-.06,.22-.08,.34-.02,.12-.03,.26-.04,.41-.01,.15-.02,.33-.04,.53h5.11Z"/>
    <polygon class="cls-2" points="155.38 84.28 155.38 71.46 156.36 71.46 156.36 83.41 163.16 83.41 163.16 84.28 155.38 84.28"/>
    <path class="cls-2" d="M170.31,84.28v-.86c-.37,.37-.75,.63-1.14,.77-.39,.14-.89,.21-1.51,.21-.65,0-1.17-.06-1.56-.18-.39-.12-.72-.32-1-.61-.2-.2-.36-.46-.47-.76-.11-.3-.16-.61-.16-.94,0-.79,.27-1.41,.8-1.85,.54-.44,1.27-.66,2.22-.66h2.81v-.97c0-.7-.18-1.23-.55-1.59s-1-.54-1.9-.54c-.61,0-1.1,.08-1.45,.25-.35,.17-.67,.45-.95,.85l-.67-.58c.37-.52,.79-.87,1.27-1.05,.47-.19,1.07-.28,1.79-.28,1.17,0,2.02,.25,2.56,.74,.54,.49,.81,1.19,.81,2.11v5.94h-.92Zm0-4.14h-2.7c-1.48,0-2.21,.58-2.21,1.75,0,.58,.18,1,.54,1.28,.36,.28,.93,.41,1.73,.41,.4,0,.78-.04,1.14-.11,.37-.07,.71-.26,1.02-.56,.33-.3,.49-.85,.49-1.66v-1.12Z"/>
    <path class="cls-2" d="M180.56,79.94c0,.69-.08,1.36-.22,2.03-.15,.67-.45,1.22-.89,1.67-.23,.23-.52,.41-.89,.55s-.78,.21-1.23,.21c-.5,0-.96-.08-1.38-.23-.42-.16-.81-.49-1.2-.99v1.12h-.92v-12.82h.92v5.26c.38-.5,.78-.83,1.2-.99,.41-.16,.87-.23,1.38-.23,.46,0,.87,.07,1.23,.21s.66,.32,.89,.55c.44,.44,.74,1,.89,1.67,.15,.67,.22,1.34,.22,2.02m-.92,0c0-.44-.03-.88-.08-1.32-.06-.44-.17-.83-.34-1.17-.17-.34-.42-.62-.75-.83-.32-.21-.75-.32-1.28-.32s-.96,.11-1.28,.32c-.32,.21-.57,.48-.75,.83-.17,.34-.29,.73-.34,1.17-.05,.44-.08,.88-.08,1.32s.03,.9,.08,1.33c.05,.43,.17,.82,.34,1.16,.17,.34,.42,.62,.75,.83,.32,.21,.75,.31,1.28,.31s.95-.1,1.28-.31c.32-.21,.57-.49,.75-.83,.18-.34,.29-.73,.34-1.16,.05-.43,.08-.88,.08-1.33"/>
    <polygon class="cls-2" points="197.27 84.28 197.27 73.71 193.38 82.48 192.41 82.48 188.45 73.71 188.45 84.28 187.48 84.28 187.48 71.46 188.45 71.46 192.92 81.34 197.27 71.46 198.25 71.46 198.25 84.28 197.27 84.28"/>
    <path class="cls-2" d="M206.24,84.28v-.86c-.37,.37-.76,.63-1.14,.77-.39,.14-.89,.21-1.51,.21-.65,0-1.17-.06-1.56-.18-.39-.12-.72-.32-1-.61-.21-.2-.36-.46-.47-.76-.11-.3-.16-.61-.16-.94,0-.79,.27-1.41,.8-1.85,.54-.44,1.28-.66,2.22-.66h2.81v-.97c0-.7-.18-1.23-.55-1.59-.37-.36-1-.54-1.9-.54-.61,0-1.1,.08-1.45,.25-.35,.17-.67,.45-.95,.85l-.67-.58c.37-.52,.79-.87,1.27-1.05,.47-.19,1.07-.28,1.79-.28,1.16,0,2.02,.25,2.56,.74,.54,.49,.81,1.19,.81,2.11v5.94h-.92Zm0-4.14h-2.7c-1.48,0-2.21,.58-2.21,1.75,0,.58,.18,1,.54,1.28,.36,.28,.94,.41,1.73,.41,.4,0,.78-.04,1.14-.11,.37-.07,.7-.26,1.02-.56,.32-.3,.49-.85,.49-1.66v-1.12Z"/>
    <path class="cls-2" d="M215.52,84.28v-5.38c0-.84-.2-1.48-.6-1.93-.4-.44-1-.67-1.79-.67s-1.4,.22-1.82,.68c-.42,.45-.63,1.09-.63,1.92v5.38h-.92v-8.68h.92v1.03c.65-.76,1.5-1.13,2.56-1.13,.97,0,1.74,.28,2.31,.83,.6,.58,.9,1.38,.9,2.41v5.54h-.92Z"/>
    <path class="cls-2" d="M224.17,84.28v-.86c-.37,.37-.75,.63-1.14,.77-.39,.14-.89,.21-1.5,.21-.65,0-1.17-.06-1.56-.18-.39-.12-.72-.32-1-.61-.21-.2-.36-.46-.47-.76-.11-.3-.16-.61-.16-.94,0-.79,.27-1.41,.8-1.85,.53-.44,1.27-.66,2.22-.66h2.81v-.97c0-.7-.18-1.23-.55-1.59-.36-.36-1-.54-1.9-.54-.61,0-1.1,.08-1.45,.25-.35,.17-.67,.45-.95,.85l-.67-.58c.37-.52,.79-.87,1.27-1.05,.47-.19,1.07-.28,1.79-.28,1.16,0,2.02,.25,2.56,.74,.54,.49,.81,1.19,.81,2.11v5.94h-.92Zm0-4.14h-2.7c-1.48,0-2.21,.58-2.21,1.75,0,.58,.18,1,.54,1.28,.36,.28,.94,.41,1.73,.41,.4,0,.78-.04,1.14-.11,.37-.07,.71-.26,1.02-.56,.33-.3,.49-.85,.49-1.66v-1.12Z"/>
    <path class="cls-2" d="M234.03,84.76c0,.54-.08,1.04-.23,1.5-.16,.46-.39,.86-.69,1.2-.3,.34-.68,.6-1.12,.78-.44,.18-.94,.28-1.5,.28-.32,0-.61-.02-.86-.06-.25-.04-.49-.11-.71-.21-.22-.1-.43-.22-.64-.36-.2-.14-.42-.32-.65-.52l.61-.61c.17,.16,.33,.29,.49,.41,.15,.12,.32,.22,.48,.3,.17,.08,.35,.14,.56,.18,.2,.04,.44,.06,.72,.06,.46,0,.85-.08,1.18-.22,.33-.15,.6-.36,.82-.63,.22-.27,.37-.59,.48-.96,.1-.36,.15-.77,.15-1.2v-1.55c-.39,.5-.78,.83-1.2,.99-.41,.16-.87,.23-1.38,.23-.46,0-.87-.07-1.23-.21-.37-.14-.66-.32-.89-.55-.44-.44-.74-1-.89-1.67-.15-.67-.22-1.34-.22-2.03s.07-1.36,.22-2.02c.15-.67,.45-1.22,.89-1.67,.23-.23,.52-.41,.89-.55,.36-.14,.78-.21,1.23-.21,.5,0,.96,.08,1.38,.23,.42,.16,.81,.49,1.2,.99v-1.12h.92v9.16Zm-.92-4.83c0-.44-.03-.88-.08-1.32-.05-.44-.17-.83-.34-1.17-.17-.34-.42-.62-.75-.83-.33-.21-.75-.32-1.28-.32s-.95,.11-1.28,.32c-.32,.21-.57,.48-.75,.83-.17,.34-.29,.73-.34,1.17-.05,.44-.08,.88-.08,1.32s.03,.9,.08,1.33c.05,.43,.17,.82,.34,1.16,.17,.34,.42,.62,.75,.83,.32,.21,.75,.31,1.28,.31s.95-.1,1.28-.31c.32-.21,.57-.49,.75-.83,.17-.34,.29-.73,.34-1.16,.05-.43,.08-.88,.08-1.33"/>
    <path class="cls-2" d="M237.19,80.14c0,1.12,.24,1.97,.71,2.55,.48,.58,1.18,.87,2.11,.87,.52,0,.95-.08,1.31-.24,.35-.16,.72-.43,1.09-.8l.68,.54c-.22,.22-.44,.41-.66,.58-.22,.17-.46,.31-.7,.42-.25,.11-.51,.2-.8,.25-.29,.05-.61,.08-.97,.08-1.2,0-2.11-.38-2.75-1.14-.63-.76-.95-1.86-.95-3.31s.31-2.51,.92-3.29,1.46-1.16,2.56-1.16,1.94,.37,2.56,1.11c.61,.74,.92,1.78,.92,3.12v.41h-6.03Zm5.11-.74c-.01-.2-.02-.38-.04-.53-.01-.15-.03-.29-.05-.41-.02-.12-.05-.23-.08-.34-.04-.11-.08-.23-.14-.36-.19-.46-.49-.81-.89-1.07-.4-.26-.86-.39-1.36-.39s-.95,.13-1.35,.39c-.39,.26-.7,.62-.9,1.07-.06,.13-.11,.25-.14,.36-.04,.11-.06,.22-.08,.34-.02,.12-.03,.26-.04,.41-.01,.15-.02,.33-.04,.53h5.11Z"/>
    <path class="cls-2" d="M256.92,84.28v-5.38c0-.84-.2-1.48-.6-1.93-.4-.44-1-.67-1.79-.67s-1.35,.22-1.79,.65c-.44,.43-.66,1.03-.66,1.78v5.54h-.92v-5.38c0-.84-.2-1.48-.6-1.93-.4-.44-1-.67-1.79-.67s-1.4,.22-1.82,.68c-.42,.45-.63,1.09-.63,1.92v5.38h-.92v-8.68h.92v1.03c.65-.76,1.51-1.13,2.57-1.13,.65,0,1.21,.14,1.68,.4,.47,.27,.84,.66,1.11,1.18,.33-.52,.74-.91,1.23-1.18,.5-.27,1.07-.4,1.72-.4,.48,0,.91,.07,1.3,.22,.38,.14,.71,.35,.99,.61,.61,.59,.92,1.39,.92,2.41v5.54h-.92Z"/>
    <path class="cls-2" d="M260.88,80.14c0,1.12,.24,1.97,.71,2.55,.48,.58,1.18,.87,2.12,.87,.52,0,.95-.08,1.31-.24,.36-.16,.72-.43,1.09-.8l.69,.54c-.22,.22-.44,.41-.66,.58-.22,.17-.46,.31-.7,.42-.25,.11-.51,.2-.8,.25-.29,.05-.61,.08-.97,.08-1.2,0-2.12-.38-2.75-1.14-.63-.76-.95-1.86-.95-3.31s.31-2.51,.92-3.29,1.46-1.16,2.56-1.16,1.94,.37,2.56,1.11c.61,.74,.92,1.78,.92,3.12v.41h-6.03Zm5.11-.74c-.01-.2-.02-.38-.04-.53-.01-.15-.03-.29-.04-.41-.02-.12-.05-.23-.08-.34-.04-.11-.08-.23-.14-.36-.19-.46-.49-.81-.89-1.07-.4-.26-.86-.39-1.36-.39s-.95,.13-1.35,.39c-.4,.26-.7,.62-.9,1.07-.06,.13-.11,.25-.14,.36-.04,.11-.06,.22-.08,.34-.02,.12-.03,.26-.05,.41-.01,.15-.02,.33-.04,.53h5.11Z"/>
    <path class="cls-2" d="M274.85,84.28v-5.38c0-.84-.2-1.48-.6-1.93-.4-.44-1-.67-1.79-.67s-1.4,.22-1.82,.68c-.42,.45-.63,1.09-.63,1.92v5.38h-.92v-8.68h.92v1.03c.65-.76,1.5-1.13,2.56-1.13,.97,0,1.74,.28,2.31,.83,.6,.58,.9,1.38,.9,2.41v5.54h-.92Z"/>
    <path class="cls-2" d="M280.48,84.28c-.68,0-1.2-.21-1.56-.64-.35-.43-.53-.97-.53-1.63v-5.72h-1.19v-.68h1.19v-2.77h.92v2.77h1.96v.68h-1.96v5.74c0,.46,.11,.81,.32,1.06,.22,.25,.55,.38,1.01,.38h.63v.81h-.79Z"/>
    <path class="cls-2" d="M284.83,73.22v2.71h-.58v-2.71h-.86v-.52h2.31v.52h-.87Zm3.89,2.71v-2.11l-.68,1.35h-.54l-.68-1.35v2.11h-.58v-3.23h.58l.95,1.84,.95-1.84h.58v3.23h-.58Z"/>
  </g>
  <g>
    <polygon class="cls-2" points="211.63 55.83 211.63 28.37 213.72 28.37 213.72 53.97 228.36 53.97 228.36 55.83 211.63 55.83"/>
    <rect class="cls-2" x="232.26" y="28.37" width="2.09" height="27.46"/>
    <polygon class="cls-2" points="259.8 55.83 259.8 33.21 251.44 52.07 249.34 52.07 240.83 33.21 240.83 55.83 238.74 55.83 238.74 28.37 240.83 28.37 250.43 49.63 259.8 28.37 261.89 28.37 261.89 55.83 259.8 55.83"/>
    <path class="cls-2" d="M283.47,48.44c0,1.16-.21,2.21-.64,3.16-.43,.94-1.04,1.74-1.84,2.4-.8,.66-1.77,1.17-2.92,1.53-1.15,.36-2.44,.54-3.89,.54-2.04,0-3.76-.29-5.17-.87-1.41-.58-2.75-1.5-4.01-2.77l1.47-1.47c.62,.62,1.22,1.14,1.8,1.55,.58,.41,1.18,.75,1.8,1.01,.62,.26,1.27,.44,1.96,.54,.68,.1,1.44,.15,2.26,.15,2.19,0,3.93-.49,5.19-1.49,1.26-.99,1.9-2.4,1.9-4.2s-.51-3.02-1.51-3.87c-.23-.21-.47-.39-.72-.54-.25-.15-.51-.28-.81-.39-.3-.1-.65-.2-1.05-.29-.4-.09-.87-.17-1.41-.25l-3.21-.5c-2.12-.31-3.76-.97-4.92-1.97-1.45-1.21-2.17-2.92-2.17-5.11,0-1.16,.2-2.21,.6-3.14,.4-.93,.97-1.72,1.7-2.38,.73-.66,1.63-1.16,2.69-1.51,1.06-.35,2.25-.52,3.56-.52,1.71,0,3.16,.24,4.36,.72,1.2,.48,2.39,1.23,3.58,2.26l-1.35,1.36c-.41-.39-.84-.74-1.28-1.05-.44-.31-.92-.58-1.45-.81-.53-.23-1.12-.41-1.78-.52-.66-.12-1.39-.17-2.19-.17-2.01,0-3.58,.5-4.71,1.51-1.12,1.01-1.68,2.4-1.68,4.18,0,1.65,.46,2.87,1.39,3.64,.49,.41,1.08,.75,1.76,1.01,.68,.26,1.41,.45,2.19,.58l3.22,.5c.65,.1,1.2,.21,1.66,.31,.47,.1,.88,.23,1.26,.37,.37,.14,.72,.32,1.05,.52,.32,.21,.64,.44,.95,.7,.75,.65,1.33,1.41,1.74,2.28,.41,.88,.62,1.88,.62,3.02"/>
    <path class="cls-2" d="M163.85,33.5c1.27,0,2.3-1.03,2.3-2.3s-1.03-2.3-2.3-2.3-2.3,1.03-2.3,2.3,1.03,2.3,2.3,2.3"/>
    <path class="cls-2" d="M112.66,47.59c-.49,2.74-1.62,4.84-3.39,6.29-1.77,1.46-3.92,2.19-6.45,2.19-1.52,0-2.87-.24-4.03-.71-1.16-.48-2.19-1.17-3.1-2.07-.67-.67-1.19-1.37-1.57-2.09-.37-.72-.65-1.52-.83-2.38-.18-.86-.29-1.85-.33-2.94-.04-1.1-.06-2.37-.06-3.81s.02-2.72,.06-3.82c.04-1.1,.15-2.08,.33-2.94,.18-.86,.46-1.66,.83-2.38,.38-.72,.9-1.42,1.57-2.09,.9-.9,1.94-1.59,3.1-2.07,1.16-.48,2.51-.72,4.03-.72,2.56,0,4.71,.73,6.47,2.19,1.75,1.46,2.88,3.56,3.37,6.29h-4.26c-.31-1.42-.93-2.57-1.86-3.45-.93-.88-2.17-1.32-3.72-1.32-1.65,0-3.01,.57-4.07,1.7-.36,.36-.65,.76-.85,1.2-.21,.44-.38,.97-.51,1.61-.13,.63-.21,1.41-.25,2.34-.04,.93-.06,2.08-.06,3.45s.02,2.51,.06,3.45c.04,.93,.12,1.71,.25,2.34,.13,.64,.3,1.17,.51,1.61,.21,.44,.49,.84,.85,1.2,1.06,1.14,2.41,1.7,4.07,1.7,1.55,0,2.79-.44,3.74-1.31,.94-.88,1.58-2.03,1.92-3.45h4.18Z"/>
    <path class="cls-2" d="M139.36,55.83v-1.78c-.73,.72-1.47,1.24-2.25,1.55-.77,.31-1.77,.46-2.98,.46s-2.28-.15-3.12-.44c-.84-.3-1.56-.74-2.15-1.34-1.03-1.08-1.55-2.49-1.55-4.22s.57-3.01,1.71-4.07c1.13-1.06,2.84-1.59,5.11-1.59h5.15v-1.39c0-1.26-.33-2.19-.99-2.79-.66-.59-1.76-.89-3.31-.89-1.06,0-1.89,.15-2.51,.44-.62,.3-1.21,.79-1.78,1.49l-2.56-2.44c.47-.54,.94-.99,1.41-1.35,.48-.36,1-.66,1.55-.89,.55-.23,1.16-.39,1.82-.48,.66-.09,1.4-.13,2.23-.13,2.74,0,4.77,.57,6.1,1.7,1.33,1.14,1.99,2.81,1.99,5.03v13.13h-3.87Zm-.08-8.67h-4.53c-2.4,0-3.6,.94-3.6,2.83,0,.91,.29,1.6,.87,2.07,.58,.48,1.53,.72,2.84,.72,.7,0,1.34-.06,1.92-.19,.58-.13,1.13-.44,1.65-.93,.57-.54,.85-1.51,.85-2.9v-1.59Z"/>
    <path class="cls-2" d="M124.46,52.48h-.02s-2.51-.01-2.51-.01c-.8,0-1.35-.19-1.66-.58-.31-.39-.46-.95-.46-1.7V28.91h-3.95v21.5c0,.72,.1,1.41,.31,2.07,.21,.66,.53,1.23,.97,1.72,.44,.49,1,.88,1.69,1.18,.68,.3,1.49,.44,2.42,.44h5.08c-.9-.96-1.52-2.08-1.85-3.36"/>
    <path class="cls-2" d="M156.97,40.81c-.44-.44-.87-.77-1.3-.99-.43-.22-.97-.33-1.65-.33-1.08,0-2.01,.39-2.77,1.18-.76,.79-1.14,1.86-1.14,3.23v11.93h-3.95v-19.63h3.87v2.13c.52-.7,1.24-1.26,2.17-1.7,.93-.44,1.95-.66,3.06-.66,.96,0,1.81,.14,2.56,.42,.75,.29,1.46,.79,2.14,1.46l-2.99,2.96Z"/>
    <path class="cls-2" d="M177.03,55.83c-.93,0-1.73-.16-2.4-.46-.67-.31-1.23-.72-1.67-1.22-.44-.5-.77-1.08-.99-1.74-.22-.66-.33-1.34-.33-2.03v-11.15h-2.24v-3.02h2.24v-7.29h3.95v7.29h3.79l1.18,3.02h-4.98v10.96c0,.72,.17,1.28,.52,1.68,.35,.4,.89,.6,1.64,.6h1.63l1.54,3.37h-3.9Z"/>
    <path class="cls-2" d="M191.42,59.74c-.36,1.03-.84,1.85-1.43,2.44-.54,.54-1.16,.92-1.86,1.12-.69,.21-1.42,.31-2.17,.31h-1.59v-3.56h1.01c.83,0,1.43-.15,1.82-.44,.39-.3,.72-.85,1.01-1.65l1.08-3.06-6.85-18.7h4.18l4.68,13.82,4.57-13.82h4.22l-8.67,23.54Z"/>
    <path class="cls-2" d="M163.85,37.02c-.64,0-1.25-.11-1.82-.3v18.97h4.02v-19.11c-.68,.28-1.42,.44-2.2,.44"/>
    <path class="cls-2" d="M284.83,28.89v2.71h-.58v-2.71h-.86v-.52h2.31v.52h-.87Zm3.89,2.71v-2.11l-.68,1.35h-.54l-.68-1.35v2.11h-.58v-3.23h.58l.95,1.84,.95-1.84h.58v3.23h-.58Z"/>
  </g>
  <g>
    <polygon class="cls-3" points="65.59 55.9 81.49 28.38 49.61 28.38 33.7 55.9 65.59 55.9"/>
    <polygon class="cls-1" points="49.2 84.35 64.72 57.41 33.69 57.42 49.2 84.35"/>
    <polygon class="cls-2" points="32.4 0 16.4 27.62 32.39 55.15 48.31 27.62 32.4 0"/>
    <polygon class="cls-1" points="0 55.9 31.08 55.9 15.53 29.13 0 55.9"/>
    <path class="cls-2" d="M1.44,57.93v2.71H.86v-2.71H0v-.52H2.31v.52h-.87Zm3.89,2.71v-2.11l-.68,1.35h-.54l-.68-1.35v2.11h-.58v-3.23h.58l.95,1.84,.95-1.84h.58v3.23h-.58Z"/>
  </g>
</svg>