<?xml version="1.0" encoding="utf-8"?>
<!-- Generator: Adobe Illustrator 16.0.4, SVG Export Plug-In . SVG Version: 6.00 Build 0)  -->
<!DOCTYPE svg PUBLIC "-//W3C//DTD SVG 1.1//EN" "http://www.w3.org/Graphics/SVG/1.1/DTD/svg11.dtd">
<svg version="1.1" id="Layer_1" xmlns="http://www.w3.org/2000/svg" xmlns:xlink="http://www.w3.org/1999/xlink" x="0px" y="0px"
	 width="187.043px" height="80px" viewBox="0 0 187.043 80" enable-background="new 0 0 187.043 80" xml:space="preserve">
<g>
	<path fill="#FFFFFF" d="M77.478,17.551c-11.949,0-21.636,9.688-21.636,21.637c0,11.948,9.687,21.635,21.636,21.635
		c11.948,0,21.636-9.687,21.636-21.635C99.114,27.238,89.426,17.551,77.478,17.551z M77.478,53.835
		c-8.09,0-14.649-6.559-14.649-14.647c0-8.092,6.559-14.65,14.649-14.65c8.09,0,14.649,6.559,14.649,14.65
		C92.127,47.276,85.568,53.835,77.478,53.835z"/>
	<polygon fill="#FFFFFF" points="109.96,72.819 99.212,72.819 89.505,61.083 95.849,55.835 	"/>
	
		<rect x="93.897" y="52.728" transform="matrix(0.7705 -0.6374 0.6374 0.7705 -17.5988 75.1957)" fill="#FFFFFF" width="3.484" height="18.626"/>
	<path fill="#FFFFFF" d="M126.95,50.165c-2.582,2.277-5.962,3.67-9.675,3.67c-8.09,0-14.649-6.559-14.649-14.647
		c0-8.092,6.559-14.65,14.649-14.65c3.473,0,6.66,1.215,9.17,3.235c1.753-1.54,3.532-3.077,5.348-4.595
		c-3.841-3.485-8.923-5.627-14.518-5.627c-7.938,0-14.857,4.287-18.622,10.66c1.707,3.287,2.677,7.018,2.677,10.977
		c0,3.958-0.97,7.688-2.677,10.974c3.765,6.373,10.684,10.661,18.622,10.661c6.114,0,11.625-2.547,15.561-6.626
		C130.874,52.988,128.912,51.607,126.95,50.165z"/>
	<g>
		<rect x="76.344" y="32.103" fill="#FFFFFF" width="2.268" height="14.167"/>
		<rect x="70.395" y="38.052" fill="#FFFFFF" width="14.166" height="2.269"/>
	</g>
</g>
<polygon fill="#BE1622" points="175.673,66.819 107.208,66.819 109.043,68.819 177.327,68.819 "/>
<polygon fill="#009640" points="178.981,70.819 110.878,70.819 112.713,72.819 180.635,72.819 "/>
<polygon fill="#BE1622" points="4.724,68.819 92.903,68.819 91.091,66.819 3.069,66.819 "/>
<path fill="#009640" d="M8.032,72.819h88.548c-0.156-0.147-0.314-0.29-0.464-0.453l-1.401-1.547H6.378L8.032,72.819z"/>
<polygon fill="#1D71B8" points="11.341,76.819 183.944,76.819 182.29,74.819 9.687,74.819 "/>
<g>
	<g>
		<path fill="#FFFFFF" d="M6.364,60.995V4.518h20.045c4.56,0,8.551,0.743,11.972,2.228c3.42,1.485,6.284,3.5,8.591,6.045
			c2.307,2.546,4.043,5.528,5.21,8.949c1.166,3.421,1.75,7.067,1.75,10.938c0,4.296-0.65,8.181-1.949,11.653
			c-1.3,3.474-3.142,6.443-5.528,8.909c-2.386,2.466-5.277,4.375-8.67,5.728c-3.395,1.353-7.187,2.028-11.375,2.028H6.364z
			 M44.864,32.677c0-2.969-0.412-5.7-1.233-8.193c-0.823-2.492-2.028-4.626-3.619-6.403c-1.591-1.776-3.527-3.168-5.807-4.176
			c-2.281-1.007-4.879-1.512-7.795-1.512H15.273V53.12h11.136c2.969,0,5.608-0.517,7.915-1.551c2.307-1.034,4.242-2.466,5.807-4.296
			c1.563-1.829,2.744-3.989,3.54-6.483C44.466,38.299,44.864,35.594,44.864,32.677z"/>
	</g>
	<g>
		<path fill="#FFFFFF" d="M154.517,60.617c-1.698,0-3.408-0.133-5.131-0.398c-1.724-0.266-3.42-0.648-5.091-1.152
			s-3.262-1.113-4.773-1.83c-1.511-0.715-2.851-1.523-4.017-2.426l3.659-5.887c5.091,3.553,10.154,5.33,15.193,5.33
			c2.651,0,4.745-0.504,6.284-1.512c1.537-1.006,2.307-2.439,2.307-4.295c0-1.75-0.863-3.035-2.585-3.859
			c-1.724-0.82-4.468-1.682-8.233-2.584c-2.599-0.637-4.826-1.285-6.682-1.949c-1.857-0.662-3.368-1.404-4.534-2.227
			c-1.167-0.822-2.016-1.803-2.545-2.943c-0.531-1.141-0.795-2.506-0.795-4.098c0-2.119,0.424-4.002,1.272-5.646
			c0.848-1.645,2.001-3.035,3.46-4.178c1.458-1.139,3.182-2,5.17-2.584s4.123-0.875,6.403-0.875c3.023,0,5.938,0.477,8.75,1.432
			c2.811,0.955,5.33,2.254,7.557,3.898l-3.739,5.328c-3.978-2.969-8.221-4.453-12.728-4.453c-2.227,0-4.11,0.465-5.647,1.391
			c-1.539,0.93-2.307,2.4-2.307,4.416c0,0.848,0.159,1.564,0.478,2.146c0.318,0.584,0.835,1.088,1.551,1.512
			c0.716,0.426,1.657,0.809,2.824,1.154c1.166,0.346,2.598,0.729,4.295,1.152c2.864,0.689,5.33,1.381,7.398,2.068
			c2.068,0.689,3.778,1.5,5.13,2.426c1.353,0.93,2.347,2.016,2.983,3.262c0.637,1.246,0.955,2.744,0.955,4.494
			c0,1.963-0.397,3.738-1.193,5.33c-0.795,1.59-1.923,2.943-3.381,4.057c-1.459,1.113-3.235,1.977-5.33,2.586
			C159.381,60.311,157.062,60.617,154.517,60.617z"/>
	</g>
</g>
</svg>
