<svg xmlns="http://www.w3.org/2000/svg" viewBox="0 0 235.88 74.69"><defs><style>.a{fill:#be1622;}.b{fill:#009640;}.c{fill:#1d71b8;}.d{fill:#fff;}</style></defs><title>Logos_logo</title><path class="a" d="M141.47,79.77h42.42l-1.81-2H142.13A18.12,18.12,0,0,1,141.47,79.77Z" transform="translate(-7.06 -13.93)"/><polygon class="a" points="101.44 63.84 0 63.84 1.66 65.84 100.9 65.84 101.44 63.84"/><path class="a" d="M121.48,78.74a11.29,11.29,0,0,0,5.17-1H114.83q0.63,0.19,1.28.35A23,23,0,0,0,121.48,78.74Z" transform="translate(-7.06 -13.93)"/><path class="b" d="M139.14,83.77h48.43c-0.16-.15-0.31-0.29-0.46-0.45l-1.4-1.55H140.5A15.83,15.83,0,0,1,139.14,83.77Z" transform="translate(-7.06 -13.93)"/><polygon class="b" points="100.35 67.84 3.31 67.84 4.96 69.84 99.81 69.84 100.35 67.84"/><polygon class="a" points="227.6 63.84 191.14 63.84 192.97 65.84 229.26 65.84 227.6 63.84"/><polygon class="b" points="230.91 67.84 194.81 67.84 196.64 69.84 232.57 69.84 230.91 67.84"/><path class="c" d="M137.18,85.87a17.08,17.08,0,0,1-2.65,1.89h108.4l-1.65-2h-104Z" transform="translate(-7.06 -13.93)"/><path class="c" d="M107.54,87.41l-1.47-.73,0.25-.91H13.67l1.65,2h93Z" transform="translate(-7.06 -13.93)"/><path class="d" d="M168.46,28.5A21.64,21.64,0,1,0,190.1,50.14,21.64,21.64,0,0,0,168.46,28.5Zm0,36.28a14.65,14.65,0,1,1,14.65-14.65A14.65,14.65,0,0,1,168.46,64.78Z" transform="translate(-7.06 -13.93)"/><polygon class="d" points="193.89 69.84 183.14 69.84 173.44 58.1 179.78 52.85 193.89 69.84"/><rect class="d" x="184.88" y="63.67" width="3.48" height="18.63" transform="translate(-10.75 121.78) rotate(-39.6)"/><rect class="d" x="160.27" y="29.12" width="2.27" height="14.17"/><rect class="d" x="154.33" y="35.07" width="14.17" height="2.27"/><path class="d" d="M210,71.56a33.71,33.71,0,0,1-5.13-.4A37.29,37.29,0,0,1,199.78,70,34,34,0,0,1,195,68.18a21.68,21.68,0,0,1-4-2.43l3.66-5.89q7.64,5.33,15.19,5.33a11.36,11.36,0,0,0,6.28-1.51,4.84,4.84,0,0,0,2.31-4.29,4.06,4.06,0,0,0-2.59-3.86A45.31,45.31,0,0,0,207.62,53,68.67,68.67,0,0,1,200.93,51a18.9,18.9,0,0,1-4.53-2.23,7.43,7.43,0,0,1-2.54-2.94,9.65,9.65,0,0,1-.79-4.1,12.14,12.14,0,0,1,1.27-5.65,12.55,12.55,0,0,1,3.46-4.18A15.31,15.31,0,0,1,203,29.33a22.62,22.62,0,0,1,6.4-.87,27,27,0,0,1,8.75,1.43,27.54,27.54,0,0,1,7.56,3.9l-3.74,5.33a20.9,20.9,0,0,0-12.73-4.45A10.76,10.76,0,0,0,203.56,36a4.78,4.78,0,0,0-2.31,4.42,4.42,4.42,0,0,0,.48,2.15,4,4,0,0,0,1.55,1.51,12.56,12.56,0,0,0,2.82,1.15q1.75,0.52,4.29,1.15,4.3,1,7.4,2.07a20.62,20.62,0,0,1,5.13,2.43,8.9,8.9,0,0,1,3,3.26,9.77,9.77,0,0,1,1,4.49A11.75,11.75,0,0,1,225.67,64a11.57,11.57,0,0,1-3.38,4.06A16.11,16.11,0,0,1,217,70.65,24.9,24.9,0,0,1,210,71.56Z" transform="translate(-7.06 -13.93)"/><path class="d" d="M25.36,65.26H52.55v6.12h-35V13.93h7.77V65.26Z" transform="translate(-7.06 -13.93)"/><path class="d" d="M58,49.64q0-9.47,5.13-15.6T77,27.9q8.88,0,14,6.12t5.15,15.62V50.5q0,9.55-5.13,15.62t-14,6.08q-8.84,0-14-6.09T58,50.5V49.64Zm7.77,0.85a20.2,20.2,0,0,0,2.86,11.19,9.47,9.47,0,0,0,8.5,4.41,9.45,9.45,0,0,0,8.44-4.41,20.1,20.1,0,0,0,2.88-11.19V49.62a20,20,0,0,0-2.9-11.15A9.51,9.51,0,0,0,77,34a9.38,9.38,0,0,0-8.42,4.45,20.25,20.25,0,0,0-2.86,11.15v0.87Z" transform="translate(-7.06 -13.93)"/><path class="d" d="M104,50.82q0-10.3,4.5-16.61a14.42,14.42,0,0,1,12.43-6.31,15,15,0,0,1,7.14,1.64,14,14,0,0,1,5.13,4.71l0.95-5.56h6.19V71.61q0,8.21-4.77,12.61t-13.77,4.4a28.87,28.87,0,0,1-6.65-.85,26,26,0,0,1-6.29-2.31l2-6a20,20,0,0,0,5.05,1.91,24.33,24.33,0,0,0,5.84.73q5.68,0,8.27-2.58t2.58-7.87V66.8a13.59,13.59,0,0,1-5,4,15.71,15.71,0,0,1-6.71,1.36q-7.85,0-12.35-5.68T104,51.65V50.82Zm7.77,0.83q0,6.43,2.72,10.34t8.29,3.91a10.27,10.27,0,0,0,5.88-1.6,12.12,12.12,0,0,0,3.91-4.52V40.13a12.06,12.06,0,0,0-3.91-4.32,10.24,10.24,0,0,0-5.8-1.6,9.05,9.05,0,0,0-8.32,4.66q-2.76,4.66-2.76,12v0.83Z" transform="translate(-7.06 -13.93)"/></svg>