<svg xmlns="http://www.w3.org/2000/svg" viewBox="0 0 235.88 73.95"><defs><style>.a{fill:#fff;}.b{fill:#be1622;}.c{fill:#009640;}.d{fill:#1d71b8;}</style></defs><title>Docs_logo</title><path class="a" d="M168.46,28.5A21.64,21.64,0,1,0,190.1,50.14,21.64,21.64,0,0,0,168.46,28.5Zm0,36.28a14.65,14.65,0,1,1,14.65-14.65A14.65,14.65,0,0,1,168.46,64.78Z" transform="translate(-7.06 -14.88)"/><polygon class="a" points="193.89 68.88 183.14 68.88 173.44 57.15 179.78 51.9 193.89 68.88"/><rect class="a" x="184.88" y="63.67" width="3.48" height="18.63" transform="translate(-10.75 120.82) rotate(-39.6)"/><rect class="a" x="160.28" y="28.17" width="2.27" height="14.17"/><rect class="a" x="154.33" y="34.12" width="14.17" height="2.27"/><polygon class="b" points="227.6 62.88 191.14 62.88 192.97 64.88 229.26 64.88 227.6 62.88"/><polygon class="c" points="230.91 66.88 194.81 66.88 196.64 68.88 232.57 68.88 230.91 66.88"/><polygon class="b" points="1.66 64.88 176.83 64.88 175.02 62.88 0 62.88 1.66 64.88"/><path class="c" d="M12,83.77H187.57c-0.16-.15-0.31-0.29-0.46-0.45l-1.4-1.55H10.36Z" transform="translate(-7.06 -14.88)"/><polygon class="d" points="8.27 72.88 235.88 72.88 234.22 70.88 6.62 70.88 8.27 72.88"/><path class="a" d="M210,71.56a33.71,33.71,0,0,1-5.13-.4A37.29,37.29,0,0,1,199.78,70,34,34,0,0,1,195,68.18a21.68,21.68,0,0,1-4-2.43l3.66-5.89q7.64,5.33,15.19,5.33a11.36,11.36,0,0,0,6.28-1.51,4.84,4.84,0,0,0,2.31-4.29,4.06,4.06,0,0,0-2.59-3.86A45.31,45.31,0,0,0,207.62,53,68.67,68.67,0,0,1,200.93,51a18.9,18.9,0,0,1-4.53-2.23,7.43,7.43,0,0,1-2.54-2.94,9.65,9.65,0,0,1-.79-4.1,12.14,12.14,0,0,1,1.27-5.65,12.55,12.55,0,0,1,3.46-4.18A15.31,15.31,0,0,1,203,29.33a22.62,22.62,0,0,1,6.4-.87,27,27,0,0,1,8.75,1.43,27.54,27.54,0,0,1,7.56,3.9l-3.74,5.33a20.9,20.9,0,0,0-12.73-4.45A10.76,10.76,0,0,0,203.56,36a4.78,4.78,0,0,0-2.31,4.42,4.42,4.42,0,0,0,.48,2.15,4,4,0,0,0,1.55,1.51,12.56,12.56,0,0,0,2.82,1.15q1.75,0.52,4.29,1.15,4.3,1,7.4,2.07a20.62,20.62,0,0,1,5.13,2.43,8.9,8.9,0,0,1,3,3.26,9.77,9.77,0,0,1,1,4.49A11.75,11.75,0,0,1,225.67,64a11.57,11.57,0,0,1-3.38,4.06A16.11,16.11,0,0,1,217,70.65,24.9,24.9,0,0,1,210,71.56Z" transform="translate(-7.06 -14.88)"/><path class="a" d="M27.69,64.14H53.82v7.62H18.2V14.88h9.49V64.14Z" transform="translate(-7.06 -14.88)"/><path class="a" d="M58.51,50.23q0-9.41,5.16-15.47t14.18-6.05q9.1,0,14.26,6.05t5.2,15.47v0.82q0,9.53-5.2,15.55t-14.18,6q-9.06,0-14.26-6T58.51,51.05V50.23ZM68,51A18.83,18.83,0,0,0,70.42,61.1Q72.81,65,77.92,65a8.21,8.21,0,0,0,7.42-3.86A18.37,18.37,0,0,0,87.85,51V50.22a18.13,18.13,0,0,0-2.5-9.95,8.24,8.24,0,0,0-7.5-3.94,8.17,8.17,0,0,0-7.42,3.94A18.7,18.7,0,0,0,68,50.22V51Z" transform="translate(-7.06 -14.88)"/><path class="a" d="M103.86,51.21q0-10.08,4.41-16.29a14.21,14.21,0,0,1,12.27-6.21,13.32,13.32,0,0,1,6.66,1.62A14.08,14.08,0,0,1,132.07,35L133,29.49h7.89V71.76q0,8.16-5,12.62t-14.3,4.45a28,28,0,0,1-6.66-.88,31,31,0,0,1-6.46-2.32l2-7.46a23,23,0,0,0,5.18,1.89,24.83,24.83,0,0,0,5.84.68q5.16,0,7.54-2.21t2.38-6.78V67.42a13.27,13.27,0,0,1-4.71,3.85,14.19,14.19,0,0,1-6.23,1.31q-7.77,0-12.19-5.66T103.86,52V51.21ZM113.35,52q0,5.82,2.32,9.32t7.21,3.5A9.72,9.72,0,0,0,128,63.57a9.37,9.37,0,0,0,3.38-3.65V41.41A10.16,10.16,0,0,0,128,37.79a9.27,9.27,0,0,0-5-1.31,7.81,7.81,0,0,0-7.25,4.1,21.11,21.11,0,0,0-2.36,10.63V52Z" transform="translate(-7.06 -14.88)"/></svg>