<svg xmlns="http://www.w3.org/2000/svg" viewBox="0 0 290.88 78.93"><defs><style>.a{fill:#be1622;}.b{fill:#009640;}.c{fill:#1d71b8;}.d{fill:#fff;}</style></defs><title>plugins_logo</title><polygon class="a" points="131.44 68.08 0 68.08 1.66 70.08 130.9 70.08 131.44 68.08"/><path class="a" d="M150.49,81.48a11.29,11.29,0,0,0,5.17-1H143.84q0.63,0.19,1.28.35A23,23,0,0,0,150.49,81.48Z" transform="translate(-6.07 -12.43)"/><polygon class="b" points="130.35 72.08 3.31 72.08 4.96 74.08 129.81 74.08 130.35 72.08"/><path class="a" d="M290.33,82.51l-1.65-2H171.15a18.12,18.12,0,0,1-.66,2H290.33Z" transform="translate(-6.07 -12.43)"/><path class="b" d="M293.63,86.51l-1.65-2H169.51a15.83,15.83,0,0,1-1.36,2H293.63Z" transform="translate(-6.07 -12.43)"/><path class="c" d="M166.19,88.62a17.08,17.08,0,0,1-2.65,1.89h133.4l-1.65-2h-129Z" transform="translate(-6.07 -12.43)"/><path class="c" d="M136.55,90.16l-1.47-.73,0.25-.91H12.69l1.65,2h123Z" transform="translate(-6.07 -12.43)"/><path class="d" d="M25.81,51V74.08H18V16.54H40q9.19,0,14.28,4.74a16.27,16.27,0,0,1,5.09,12.49q0,7.86-5.09,12.55T40,51H25.81Zm0-6.13H40q5.84,0,8.72-3.14a11.25,11.25,0,0,0,2.88-7.91,11.41,11.41,0,0,0-2.9-8q-2.9-3.2-8.7-3.2H25.81V44.88Z" transform="translate(-6.07 -12.43)"/><path class="d" d="M76.74,74.08H69V12.43h7.77V74.08Z" transform="translate(-6.07 -12.43)"/><path class="d" d="M115.79,67.76a14.47,14.47,0,0,1-5.17,5.3,14.12,14.12,0,0,1-7.3,1.86q-7,0-10.89-4.47T88.53,56.54V31.32H96.3V56.61q0,6.84,2,9.41t6.27,2.57a12.75,12.75,0,0,0,6.84-1.68,10.5,10.5,0,0,0,4.08-4.76V31.32h7.77V74.08h-7Z" transform="translate(-6.07 -12.43)"/><path class="d" d="M132.91,53.49q0-10.32,4.5-16.64a14.41,14.41,0,0,1,12.43-6.32A15,15,0,0,1,157,32.17a14.06,14.06,0,0,1,5.13,4.72l0.95-5.57h6.19v43q0,8.22-4.77,12.63t-13.77,4.41a28.82,28.82,0,0,1-6.65-.85,26,26,0,0,1-6.29-2.31l2-6a19.93,19.93,0,0,0,5,1.92,24.28,24.28,0,0,0,5.84.73q5.68,0,8.27-2.59t2.58-7.88V69.5a13.59,13.59,0,0,1-5,4.05,15.69,15.69,0,0,1-6.71,1.36q-7.85,0-12.35-5.69t-4.5-14.9V53.49Zm7.77,0.83q0,6.44,2.72,10.35t8.28,3.91a10.26,10.26,0,0,0,5.88-1.6,12.13,12.13,0,0,0,3.91-4.53V42.78a12.08,12.08,0,0,0-3.91-4.33,10.23,10.23,0,0,0-5.8-1.6,9.05,9.05,0,0,0-8.32,4.66q-2.76,4.66-2.76,12v0.83Z" transform="translate(-6.07 -12.43)"/><path class="d" d="M188.93,20.37h-7.77V12.43h7.77v7.94Zm0,53.71h-7.77V31.32h7.77V74.08Z" transform="translate(-6.07 -12.43)"/><path class="d" d="M207.83,31.32l0.55,6.36a15.53,15.53,0,0,1,5.35-5.28A14.25,14.25,0,0,1,221,30.53q6.9,0,10.69,4.05t3.79,12.51v27h-7.77V47.25q0-5.65-2.23-8t-6.81-2.37a10.94,10.94,0,0,0-5.94,1.62,11.82,11.82,0,0,0-4.12,4.43V74.08h-7.77V31.32h6.94Z" transform="translate(-6.07 -12.43)"/><path class="d" d="M271.62,62.7a5.31,5.31,0,0,0-2-4.23q-2-1.66-7.4-2.89-7.77-1.7-11.7-4.6a9.31,9.31,0,0,1-3.93-7.91,11.17,11.17,0,0,1,4.42-8.88q4.42-3.67,11.52-3.67,7.46,0,11.85,3.83a11.34,11.34,0,0,1,4.2,9.33l-0.08.24h-7.42a6.81,6.81,0,0,0-2.35-5,8.64,8.64,0,0,0-6.21-2.23q-4.14,0-6.15,1.82a5.7,5.7,0,0,0-2,4.39,4.89,4.89,0,0,0,1.77,4q1.78,1.46,7.22,2.61,8.09,1.74,12,4.72a9.53,9.53,0,0,1,3.95,8,11.06,11.06,0,0,1-4.6,9.21q-4.6,3.52-12,3.52-8.17,0-12.86-4.15t-4.46-9.68l0.08-.24H253a7.16,7.16,0,0,0,3.08,6,11.93,11.93,0,0,0,6.75,1.91,11,11,0,0,0,6.49-1.68A5.18,5.18,0,0,0,271.62,62.7Z" transform="translate(-6.07 -12.43)"/></svg>