<?xml version="1.0" encoding="utf-8"?>
<!-- Generator: Adobe Illustrator 16.0.4, SVG Export Plug-In . SVG Version: 6.00 Build 0)  -->
<!DOCTYPE svg PUBLIC "-//W3C//DTD SVG 1.1//EN" "http://www.w3.org/Graphics/SVG/1.1/DTD/svg11.dtd">
<svg version="1.1" id="Layer_1" xmlns="http://www.w3.org/2000/svg" xmlns:xlink="http://www.w3.org/1999/xlink" x="0px" y="0px"
	 width="187.043px" height="80px" viewBox="0 0 187.043 80" enable-background="new 0 0 187.043 80" xml:space="preserve">
<g>
	<path fill="#FFFFFF" d="M77.478,17.551c-11.949,0-21.636,9.688-21.636,21.637c0,11.948,9.687,21.635,21.636,21.635
		c11.948,0,21.636-9.687,21.636-21.635C99.114,27.238,89.426,17.551,77.478,17.551z M77.478,53.835
		c-8.09,0-14.649-6.559-14.649-14.647c0-8.092,6.559-14.65,14.649-14.65c8.09,0,14.649,6.559,14.649,14.65
		C92.127,47.276,85.568,53.835,77.478,53.835z"/>
	<polygon fill="#FFFFFF" points="109.96,72.819 99.212,72.819 89.505,61.083 95.849,55.835 	"/>
	
		<rect x="93.897" y="52.728" transform="matrix(0.7705 -0.6374 0.6374 0.7705 -17.5988 75.1957)" fill="#FFFFFF" width="3.484" height="18.626"/>
	<path fill="#FFFFFF" d="M126.95,50.165c-2.582,2.277-5.962,3.67-9.675,3.67c-8.09,0-14.649-6.559-14.649-14.647
		c0-8.092,6.559-14.65,14.649-14.65c3.473,0,6.66,1.215,9.17,3.235c1.753-1.54,3.532-3.077,5.348-4.595
		c-3.841-3.485-8.923-5.627-14.518-5.627c-7.938,0-14.857,4.287-18.622,10.66c1.707,3.287,2.677,7.018,2.677,10.977
		c0,3.958-0.97,7.688-2.677,10.974c3.765,6.373,10.684,10.661,18.622,10.661c6.114,0,11.625-2.547,15.561-6.626
		C130.874,52.988,128.912,51.607,126.95,50.165z"/>
	<g>
		<rect x="76.344" y="32.103" fill="#FFFFFF" width="2.268" height="14.167"/>
		<rect x="70.395" y="38.052" fill="#FFFFFF" width="14.166" height="2.269"/>
	</g>
</g>
<polygon fill="#BE1622" points="175.673,66.819 107.208,66.819 109.043,68.819 177.327,68.819 "/>
<polygon fill="#009640" points="178.981,70.819 110.878,70.819 112.713,72.819 180.635,72.819 "/>
<polygon fill="#BE1622" points="4.724,68.819 92.903,68.819 91.091,66.819 3.069,66.819 "/>
<path fill="#009640" d="M8.032,72.819h88.548c-0.156-0.147-0.314-0.29-0.464-0.453l-1.401-1.547H6.378L8.032,72.819z"/>
<polygon fill="#1D71B8" points="11.341,76.819 183.944,76.819 182.29,74.819 9.687,74.819 "/>
<text transform="matrix(1 0 0 1 0 60.9951)" fill="#FFFFFF" font-family="'Raleway-SemiBold'" font-size="79.5457">D</text>
<text transform="matrix(1 0 0 1 133.835 59.8223)" fill="#FFFFFF" font-family="'Raleway-SemiBold'" font-size="79.5457">s</text>
</svg>
