<?xml version="1.0" encoding="utf-8"?>
<!-- Generator: Adobe Illustrator 16.0.4, SVG Export Plug-In . SVG Version: 6.00 Build 0)  -->
<!DOCTYPE svg PUBLIC "-//W3C//DTD SVG 1.1//EN" "http://www.w3.org/Graphics/SVG/1.1/DTD/svg11.dtd">
<svg version="1.1" id="Layer_1" xmlns="http://www.w3.org/2000/svg" xmlns:xlink="http://www.w3.org/1999/xlink" x="0px" y="0px"
	 width="245px" height="73.5px" viewBox="0 0 245 73.5" enable-background="new 0 0 245 73.5" xml:space="preserve">
<g>
	<g>
		<path fill="#FFFFFF" d="M19.662,9.55l10.869,31.436h0.176L41.664,9.55h11.191v42.656h-8.555V39.492l0.82-18.838l-0.176-0.029
			L33.52,52.207h-5.742L16.41,20.742l-0.176,0.029l0.82,18.721v12.715H8.5V9.55H19.662z"/>
		<path fill="#FFFFFF" d="M79.515,47.636c-0.977,1.66-2.217,2.94-3.721,3.838s-3.232,1.348-5.186,1.348
			c-3.34,0-5.951-1.069-7.836-3.208s-2.828-5.464-2.828-9.976V20.507h8.525v19.233c0,2.31,0.391,3.969,1.172,4.977
			c0.781,1.008,1.934,1.512,3.457,1.512c1.367,0,2.539-0.22,3.516-0.661s1.777-1.091,2.402-1.953V20.507h8.555v31.699h-7.295
			L79.515,47.636z"/>
		<path fill="#FFFFFF" d="M103.011,52.207h-8.555V6.503h8.555V52.207z"/>
		<path fill="#FFFFFF" d="M120.208,12.744v7.764h5.332v6.006h-5.332v16.143c0,1.23,0.254,2.109,0.762,2.637s1.191,0.791,2.051,0.791
			c0.449,0,0.835-0.024,1.157-0.073c0.322-0.048,0.698-0.132,1.128-0.249l0.732,6.182c-0.859,0.293-1.699,0.513-2.52,0.659
			s-1.709,0.22-2.666,0.22c-2.949,0-5.22-0.81-6.812-2.432c-1.592-1.621-2.388-4.189-2.388-7.705V26.513h-4.629v-6.006h4.629v-7.764
			H120.208z"/>
		<path fill="#FFFFFF" d="M139.984,12.919h-8.555V6.503h8.555V12.919z M139.984,52.207h-8.555V20.507h8.555V52.207z"/>
	</g>
	<path fill="#FFFFFF" d="M167.935,9.55c-11.949,0-21.636,9.688-21.636,21.637c0,11.948,9.687,21.635,21.636,21.635
		c11.948,0,21.636-9.687,21.636-21.635C189.57,19.238,179.883,9.55,167.935,9.55z M167.935,45.835
		c-8.09,0-14.649-6.559-14.649-14.648c0-8.091,6.559-14.65,14.649-14.65c8.09,0,14.649,6.559,14.649,14.65
		C182.583,39.276,176.024,45.835,167.935,45.835z"/>
	<polygon fill="#FFFFFF" points="200.417,64.819 189.668,64.819 179.962,53.083 186.305,47.834 	"/>
	
		<rect x="184.353" y="44.728" transform="matrix(0.7705 -0.6374 0.6374 0.7705 8.2568 131.0166)" fill="#FFFFFF" width="3.484" height="18.625"/>
	<path fill="#FFFFFF" d="M217.406,42.165c-2.582,2.277-5.962,3.67-9.675,3.67c-8.09,0-14.649-6.559-14.649-14.648
		c0-8.091,6.559-14.65,14.649-14.65c3.473,0,6.66,1.215,9.17,3.235c1.753-1.54,3.532-3.076,5.348-4.594
		c-3.841-3.486-8.923-5.628-14.518-5.628c-7.938,0-14.857,4.288-18.622,10.661c1.707,3.287,2.677,7.017,2.677,10.976
		c0,3.958-0.97,7.688-2.677,10.975c3.765,6.373,10.684,10.66,18.622,10.66c6.114,0,11.625-2.547,15.561-6.625
		C221.33,44.988,219.368,43.607,217.406,42.165z"/>
	<g>
		<rect x="166.801" y="24.103" fill="#FFFFFF" width="2.268" height="14.167"/>
		<rect x="160.852" y="30.052" fill="#FFFFFF" width="14.166" height="2.269"/>
	</g>
</g>
<polygon fill="#BE1622" points="230.129,58.819 197.665,58.819 199.5,60.819 231.784,60.819 "/>
<polygon fill="#009640" points="233.438,62.819 201.335,62.819 203.17,64.819 235.092,64.819 "/>
<polygon fill="#BE1622" points="5.18,60.819 183.359,60.819 181.548,58.819 3.526,58.819 "/>
<path fill="#009640" d="M8.489,64.819h178.548c-0.156-0.147-0.314-0.29-0.464-0.453l-1.401-1.547H6.834L8.489,64.819z"/>
<polygon fill="#1D71B8" points="11.797,68.819 238.4,68.819 236.746,66.819 10.143,66.819 "/>
</svg>
